<svg xmlns="http://www.w3.org/2000/svg" style="display: none;">
  
    <symbol id="icon-search" viewBox="0 0 512 512">
      <path d="m291 53c-91 0-164 74-164 164c0 31 8 60 23 85l-79 79l0 0c-8 8-14 20-14 33c0 25 21 45 46 45c12 0 24-5 32-14l0 1l82-82c22 11 47 17 74 17c90 0 164-73 164-164c0-90-74-164-164-164z m1 263c-57 0-103-45-103-102c0-56 46-102 103-102c56 0 102 46 102 102c0 57-46 102-102 102z"/>
    </symbol>
  
    <symbol id="icon-list" viewBox="0 0 512 512">
      <path d="m90 155l0 0c0 6 5 12 11 12l0 0l310 0l0 0c6 0 11-6 11-12l0 0l0-54c0-6-5-11-11-11l-310 0c-6 0-11 5-11 11c0 1 0 1 0 1z m321 63l-310 0c-6 0-11 5-11 11c0 0 0 1 0 1l0 53l0 0c0 6 5 11 11 11l0 0l310 0l0 0c6 0 11-5 11-11l0 0l0-54c0-6-5-11-11-11z m0 127l-310 0c-6 0-11 6-11 12c0 0 0 0 0 1l0 53l0 0c0 6 5 11 11 11l0 0l310 0l0 0c6 0 11-5 11-11l0 0l0-54c0-6-5-12-11-12z"/>
    </symbol>
  
    <symbol id="icon-chevron-down-circle" viewBox="0 0 512 512">
      <path d="m269 371l130-130c3-3 5-7 5-12c0-5-2-10-5-13l-30-29c-3-4-7-6-12-6c-5 0-10 2-13 6l-88 87l-88-87c-3-4-8-6-13-6c-5 0-9 2-12 6l-30 29c-3 3-5 8-5 13c0 5 2 9 5 12l130 130c4 4 8 6 13 6c5 0 9-2 13-6z m206-115c0 40-9 77-29 110c-20 34-46 60-80 80c-33 20-70 29-110 29c-40 0-77-9-110-29c-34-20-60-46-80-80c-20-33-29-70-29-110c0-40 9-77 29-110c20-34 46-60 80-80c33-20 70-29 110-29c40 0 77 9 110 29c34 20 60 46 80 80c20 33 29 70 29 110z"/>
    </symbol>
  
    <symbol id="icon-chevron-up-circle" viewBox="0 0 512 512">
      <path d="m369 325l30-29c3-3 5-8 5-13c0-5-2-9-5-12l-130-130c-4-4-8-6-13-6c-5 0-9 2-13 6l-130 130c-3 3-5 7-5 12c0 5 2 10 5 13l30 29c3 4 7 6 12 6c5 0 10-2 13-6l88-87l88 87c3 4 8 6 13 6c5 0 9-2 12-6z m106-69c0 40-9 77-29 110c-20 34-46 60-80 80c-33 20-70 29-110 29c-40 0-77-9-110-29c-34-20-60-46-80-80c-20-33-29-70-29-110c0-40 9-77 29-110c20-34 46-60 80-80c33-20 70-29 110-29c40 0 77 9 110 29c34 20 60 46 80 80c20 33 29 70 29 110z"/>
    </symbol>
  
</svg>
